<?xml version="1.0" encoding="UTF-8"?>
<svg width="580px" height="526px" viewBox="0 0 580 526" version="1.1" xmlns="http://www.w3.org/2000/svg" xmlns:xlink="http://www.w3.org/1999/xlink">
    <!-- Generator: Sketch 60.1 (88133) - https://sketch.com -->
    <title>9</title>
    <desc>Created with Sketch.</desc>
    <defs>
        <path d="M155.492647,427 C130.551346,427 108.435758,421.833157 89.1452206,411.499315 C69.854683,401.165473 53.5846251,386.542332 40.3345588,367.629452 C27.0844926,348.716572 17.0496665,326.196934 10.2297794,300.069863 C3.40989237,273.942792 0,245.086459 0,213.5 C0,181.913541 3.40989237,152.959721 10.2297794,126.637671 C17.0496665,100.315622 27.0844926,77.795984 40.3345588,59.0780822 C53.5846251,40.3601804 69.854683,25.8345266 89.1452206,15.5006849 C108.435758,5.16684331 130.551346,0 155.492647,0 C180.433948,0 202.646961,5.16684331 222.132353,15.5006849 C241.617744,25.8345266 257.887802,40.3601804 270.943015,59.0780822 C283.998227,77.795984 293.935628,100.315622 300.755515,126.637671 C307.575402,152.959721 310.985294,181.913541 310.985294,213.5 C310.985294,245.086459 307.575402,273.942792 300.755515,300.069863 C293.935628,326.196934 283.998227,348.716572 270.943015,367.629452 C257.887802,386.542332 241.617744,401.165473 222.132353,411.499315 C202.646961,421.833157 180.433948,427 155.492647,427 L155.492647,427 Z M155.492647,398.923288 C168.742713,398.923288 180.336347,394.633833 190.273897,386.054795 C200.211447,377.475756 208.297763,365.09483 214.533088,348.911644 C220.768414,332.728458 225.444837,313.230936 228.5625,290.418493 C231.680163,267.60605 233.238971,241.771834 233.238971,212.915068 C233.238971,184.448259 231.680163,158.809018 228.5625,135.996575 C225.444837,113.184133 220.768414,93.7840982 214.533088,77.7958904 C208.297763,61.8076826 200.211447,49.5242438 190.273897,40.9452055 C180.336347,32.3661672 168.742713,28.0767123 155.492647,28.0767123 C141.852873,28.0767123 130.161813,32.3661672 120.419118,40.9452055 C110.676422,49.5242438 102.590106,61.9051702 96.1599265,78.0883562 C89.7297473,94.2715421 85.0533234,113.769064 82.1305147,136.581507 C79.207706,159.39395 77.7463235,185.033191 77.7463235,213.5 C77.7463235,241.966809 79.207706,267.60605 82.1305147,290.418493 C85.0533234,313.230936 89.7297473,332.728458 96.1599265,348.911644 C102.590106,365.09483 110.676422,377.475756 120.419118,386.054795 C130.161813,394.633833 141.852873,398.923288 155.492647,398.923288 L155.492647,398.923288 Z M536.625,176.064384 C550.654482,182.303684 563.709498,189.127817 575.790441,196.536986 C587.871384,203.946156 598.393338,212.720041 607.356618,222.858904 C616.319898,232.997768 623.334533,244.891256 628.400735,258.539726 C633.466937,272.188196 636,288.371139 636,307.089041 C636,325.416987 631.908129,341.98988 623.724265,356.808219 C615.5404,371.626558 604.628745,384.20246 590.988971,394.536301 C577.349197,404.870143 561.663692,412.864127 543.931985,418.518493 C526.200279,424.172859 507.78686,427 488.691176,427 C481.676436,427 473.200417,426.415074 463.262868,425.245205 C453.325318,424.075337 443.095641,422.028097 432.573529,419.103425 C422.051418,416.178752 411.62689,412.181761 401.299632,407.112329 C390.972375,402.042897 381.716953,395.608715 373.533088,387.809589 C365.349224,380.010463 358.72429,370.74914 353.658088,360.025342 C348.591886,349.301545 346.058824,336.530668 346.058824,321.712329 C346.058824,302.994427 349.566141,287.103947 356.580882,274.040411 C363.595623,260.976875 372.169067,250.155751 382.301471,241.576712 C392.433874,232.997674 403.150679,226.563492 414.452206,222.273973 C425.753733,217.984453 435.885985,214.86485 444.849265,212.915068 C435.106569,207.845637 425.55887,202.386331 416.205882,196.536986 C406.852894,190.687642 398.474302,183.766022 391.069853,175.771918 C383.665404,167.777814 377.722449,158.321516 373.240809,147.40274 C368.759169,136.483964 366.518382,123.225649 366.518382,107.627397 C366.518382,90.0793643 369.928275,74.676322 376.748162,61.4178082 C383.568049,48.1592944 392.726045,36.9482193 404.222426,27.7842466 C415.718807,18.6202738 428.773824,11.6986535 443.387868,7.01917808 C458.001911,2.33970263 473.102863,0 488.691176,0 C499.602996,0 511.976034,1.36482653 525.810662,4.09452055 C539.64529,6.82421456 552.700306,11.6011074 564.976103,18.4253425 C577.2519,25.2495775 587.579002,34.4134128 595.957721,45.9171233 C604.336439,57.4208338 608.525735,72.1414628 608.525735,90.0794521 C608.525735,103.727922 606.284949,115.523923 601.803309,125.467808 C597.321669,135.411694 591.573564,143.893116 584.558824,150.912329 C577.544083,157.931542 569.750043,163.488336 561.176471,167.582877 C552.602898,171.677418 544.419157,174.504558 536.625,176.064384 L536.625,176.064384 Z M460.047794,222.273973 C456.150716,225.393623 451.571717,229.878053 446.310662,235.727397 C441.049606,241.576742 435.98348,248.693337 431.112132,257.077397 C426.240784,265.461457 422.148914,275.210218 418.836397,286.323973 C415.52388,297.437727 413.867647,309.623678 413.867647,322.882192 C413.867647,336.920618 416.108433,348.814107 420.590074,358.563014 C425.071714,368.311921 431.014669,376.305905 438.419118,382.545205 C445.823566,388.784506 454.007308,393.366424 462.970588,396.291096 C471.933868,399.215768 481.091865,400.678082 490.444853,400.678082 C499.797841,400.678082 508.858412,399.508231 517.626838,397.168493 C526.395264,394.828755 534.28673,391.026739 541.301471,385.762329 C548.316212,380.497919 553.869465,373.673786 557.961397,365.289726 C562.053329,356.905666 564.099265,346.864442 564.099265,335.165753 C564.099265,320.737371 561.079074,307.869006 555.038603,296.560274 C548.998132,285.251542 541.106666,275.11283 531.363971,266.143836 C521.621275,257.174841 510.514768,249.083369 498.044118,241.869178 C485.573467,234.654987 472.908153,228.123317 460.047794,222.273973 L460.047794,222.273973 Z M520.841912,168.460274 C523.959574,164.950667 527.272041,160.563725 530.779412,155.299315 C534.286782,150.034905 537.501824,143.990673 540.424632,137.166438 C543.347441,130.342203 545.783078,123.12812 547.731618,115.523973 C549.680157,107.919825 550.654412,100.218304 550.654412,92.4191781 C550.654412,79.5506206 548.998178,68.8269835 545.685662,60.2479452 C542.373145,51.6689069 537.988998,44.7472866 532.533088,39.4828767 C527.077179,34.2184668 520.744521,30.4164501 513.534926,28.0767123 C506.325332,25.7369746 498.628717,24.5671233 490.444853,24.5671233 C484.209528,24.5671233 477.682019,25.5419994 470.862132,27.4917808 C464.042245,29.4415623 457.904439,32.5611658 452.448529,36.8506849 C446.99262,41.1402041 442.413621,46.7944855 438.711397,53.8136986 C435.009173,60.8329118 433.158088,69.4118215 433.158088,79.5506849 C433.158088,92.8091987 435.593726,104.020274 440.465074,113.184247 C445.336421,122.348219 451.766504,130.342203 459.755515,137.166438 C467.744525,143.990673 476.999947,149.83993 487.522059,154.714384 C498.04417,159.588837 509.150677,164.170755 520.841912,168.460274 L520.841912,168.460274 Z" id="path-1"></path>
        <filter x="-15.7%" y="-11.7%" width="131.4%" height="146.8%" filterUnits="objectBoundingBox" id="filter-2">
            <feOffset dx="0" dy="50" in="SourceAlpha" result="shadowOffsetOuter1"></feOffset>
            <feGaussianBlur stdDeviation="25" in="shadowOffsetOuter1" result="shadowBlurOuter1"></feGaussianBlur>
            <feColorMatrix values="0 0 0 0 0.318160077   0 0 0 0 0.210504031   0 0 0 0 0.0496811278  0 0 0 0.5 0" type="matrix" in="shadowBlurOuter1"></feColorMatrix>
        </filter>
    </defs>
    <g id="Product-List-&amp;-Detail" stroke="none" stroke-width="1" fill="none" fill-rule="evenodd" opacity="0.335995802">
        <g id="product-detail" transform="translate(0.000000, -356.000000)">
            <g id="9" transform="translate(-105.000000, 356.000000)">
                <g id="08">
                    <use fill="black" fill-opacity="1" filter="url(#filter-2)" xlink:href="#path-1"></use>
                    <use fill="#FAC825" fill-rule="evenodd" xlink:href="#path-1"></use>
                </g>
            </g>
        </g>
    </g>
</svg>