<?xml version="1.0" encoding="UTF-8"?>
<svg width="10px" height="16px" viewBox="0 0 10 16" version="1.1" xmlns="http://www.w3.org/2000/svg" xmlns:xlink="http://www.w3.org/1999/xlink">
  <!-- Generator: Sketch 60.1 (88133) - https://sketch.com -->
  <title>Shape</title>
  <desc>Created with Sketch.</desc>
  <g id="Symbols" stroke="none" stroke-width="1" fill="none" fill-rule="evenodd">
    <g id="Footer-Desktop" transform="translate(-372.000000, -179.000000)">
      <g id="Group-4">
        <rect id="Rectangle-59" fill="#272525" x="0" y="0" width="1280" height="415"></rect>
        <g id="Group-21" transform="translate(355.000000, 165.000000)">
          <g id="Group-19">
            <path d="M20.02293,30 L20,23 L17,23 L17,20 L20,20 L20,18 C20,15.3008 21.67151,14 24.07938,14 C25.23277,14 26.22406,14.08587 26.51294,14.12425 L26.51294,16.94507 L24.84296,16.94583 C23.53343,16.94583 23.27987,17.5681 23.27987,18.48124 L23.27987,20 L27,20 L26,23 L23.27986,23 L23.27986,30 L20.02293,30 L20.02293,30 Z" id="Shape" fill="#FFFFFF"></path>
            <circle id="Oval-50" stroke="#FFFFFF" cx="22" cy="22" r="21.5"></circle>
          </g>
        </g>
      </g>
    </g>
  </g>
</svg>
