<?xml version="1.0" encoding="UTF-8"?>
<svg width="186px" height="45px" viewBox="0 0 186 45" version="1.1" xmlns="http://www.w3.org/2000/svg" xmlns:xlink="http://www.w3.org/1999/xlink">
    <!-- Generator: Sketch 60.1 (88133) - https://sketch.com -->
    <title>Group</title>
    <desc>Created with Sketch.</desc>
    <defs>
        <polygon id="path-1" points="43.1057138 0.296756757 0.208593778 0.296756757 0.208593778 25.6356791 43.1057138 25.6356791 43.1057138 0.296756757"></polygon>
        <polygon id="path-3" points="0 44.7032432 67.9555733 44.7032432 67.9555733 0.304054054 0 0.304054054"></polygon>
    </defs>
    <g id="Symbols" stroke="none" stroke-width="1" fill="none" fill-rule="evenodd">
        <g id="Footer-Desktop" transform="translate(-55.000000, -164.000000)">
            <g id="Group-4">
                <g id="Group" transform="translate(55.000000, 164.000000)">
                    <g id="Page-1">
                        <path d="M22.6786347,13.1202365 C21.7163591,13.1202365 20.9366258,13.9046959 20.9366258,14.8728041 C20.9366258,15.8418243 21.7163591,16.6256757 22.6786347,16.6256757 C23.6409102,16.6256757 24.4206436,15.8418243 24.4206436,14.8728041 C24.4206436,13.9046959 23.6409102,13.1202365 22.6786347,13.1202365 L22.6786347,13.1202365 Z" id="Fill-1" fill="#FEFEFE"></path>
                        <path d="M44.1551502,13.0958818 C43.1928747,13.0958818 42.4125369,13.8797331 42.4125369,14.8490574 C42.4125369,15.8180777 43.1928747,16.6019291 44.1551502,16.6019291 C45.117728,16.6019291 45.8968569,15.8180777 45.8968569,14.8490574 C45.8968569,13.8797331 45.117728,13.0958818 44.1551502,13.0958818" id="Fill-3" fill="#FEFEFE"></path>
                        <path d="M22.9441067,18.4856959 C20.9609244,18.4856959 19.3531022,16.8681284 19.3531022,14.8726216 C19.3531022,12.8768108 20.9609244,11.2592432 22.9441067,11.2592432 C24.9281956,11.2592432 26.5360178,12.8768108 26.5360178,14.8726216 C26.5360178,16.8681284 24.9281956,18.4856959 22.9441067,18.4856959 M22.9441067,9.65809459 C20.0820622,9.65809459 17.7616,11.9932297 17.7616,14.8726216 C17.7616,17.7541419 20.0820622,20.0868446 22.9441067,20.0868446 C25.8070578,20.0868446 28.12752,17.7541419 28.12752,14.8726216 C28.12752,11.9932297 25.8070578,9.65809459 22.9441067,9.65809459" id="Fill-5" fill="#FEFEFE"></path>
                        <g id="Group-9" transform="translate(12.088889, 0.007297)">
                            <mask id="mask-2" fill="white">
                                <use xlink:href="#path-1"></use>
                            </mask>
                            <g id="Clip-8"></g>
                            <path d="M32.3357227,23.5404426 C27.5875093,23.5404426 23.7387093,19.6686182 23.7387093,14.8913209 C23.7387093,10.1164561 27.5875093,6.24371959 32.3357227,6.24371959 C37.0827271,6.24371959 40.9309227,10.1164561 40.9309227,14.8913209 C40.9309227,19.6686182 37.0827271,23.5404426 32.3357227,23.5404426 L32.3357227,23.5404426 Z M21.615296,13.9627399 C21.5893049,14.2680101 21.5732871,14.576625 21.5732871,14.8888885 C21.5720782,8.96378716 16.8002916,4.15851689 10.9111893,4.15061149 C13.9663538,2.81216554 17.7601493,2.09003716 21.5757049,2.09003716 C21.5835627,2.09003716 21.5914204,2.09064527 21.5992782,2.09064527 C21.6195271,2.09034122 21.6394738,2.08973311 21.6597227,2.08973311 C25.4810204,2.08973311 28.9435804,2.81429392 32.0023716,4.15790878 C26.2601493,4.33486824 21.658816,9.06990203 21.6576071,14.8888885 C21.6576071,14.576625 21.6412871,14.2683142 21.615296,13.9627399 L21.615296,13.9627399 Z M10.9794916,23.5404426 C6.23188267,23.5404426 2.38308267,19.6686182 2.38308267,14.8913209 C2.38308267,10.1164561 6.23188267,6.24371959 10.9794916,6.24371959 C15.7271004,6.24371959 19.5762027,10.1164561 19.5762027,14.8913209 C19.5762027,19.6686182 15.7271004,23.5404426 10.9794916,23.5404426 L10.9794916,23.5404426 Z M35.9690382,4.29990203 C32.329376,1.83615203 27.3596338,0.296726351 21.6597227,0.296726351 C15.957696,0.296726351 10.6464427,1.83493581 7.00678044,4.29990203 L0.208593778,4.29990203 C1.31714489,5.60459797 2.13767822,7.37023986 2.34198044,8.58311149 C1.060256,10.3542264 0.301376,12.5330777 0.301376,14.8913209 C0.301376,20.8252399 5.08192711,25.6356791 10.9794916,25.6356791 C14.325696,25.6356791 17.3113493,24.0843953 19.2691449,21.6613885 C20.0679182,22.5996993 21.389536,24.4881791 21.6576071,25.0369966 C21.6576071,25.0369966 23.1910827,22.732875 24.0527182,21.6711182 C26.0099093,24.0892601 28.9931449,25.6356791 32.3357227,25.6356791 C38.2323804,25.6356791 43.0138382,20.8252399 43.0138382,14.8913209 C43.0138382,12.5342939 42.2531449,10.3575709 40.9726293,8.58645608 C41.1757227,7.37419257 41.996256,5.60672635 43.1057138,4.29990203 L35.9690382,4.29990203 Z" id="Fill-7" fill="#FEFEFE" mask="url(#mask-2)"></path>
                        </g>
                        <path d="M44.4207733,18.4619493 C42.4375911,18.4619493 40.8294667,16.8443818 40.8294667,14.848875 C40.8294667,12.8524561 42.4375911,11.2345845 44.4207733,11.2345845 C46.4042578,11.2345845 48.0123822,12.8524561 48.0123822,14.848875 C48.0123822,16.8443818 46.4042578,18.4619493 44.4207733,18.4619493 M44.4207733,9.63434797 C41.5578222,9.63434797 39.2385689,11.9682669 39.2385689,14.848875 C39.2385689,17.7279628 41.5578222,20.063098 44.4207733,20.063098 C47.2828178,20.063098 49.60328,17.7279628 49.60328,14.848875 C49.60328,11.9682669 47.2828178,9.63434797 44.4207733,9.63434797" id="Fill-10" fill="#FEFEFE"></path>
                        <path d="M23.0845796,4.15775676 C26.1240284,2.82630405 29.8936462,2.10539189 33.6880462,2.09779054 C33.6801884,2.09779054 33.6726329,2.09718243 33.6644729,2.09718243 C29.8489173,2.09718243 26.0551218,2.81931081 22.9999573,4.15775676 C28.8890596,4.16596622 33.6608462,8.97093243 33.6620551,14.8963378 C33.6620551,14.5840743 33.6780729,14.2754595 33.704064,13.9698851 C33.2359218,8.47836486 28.6629973,4.16535811 23.0845796,4.15775676" id="Fill-12" fill="#FEFEFE"></path>
                        <path d="M66.4428604,34.9758851 C66.6368871,34.9758851 66.6659004,34.9758851 66.714256,34.9591622 C66.8233582,34.9260203 66.831216,34.8475743 66.831216,34.7691284 C66.831216,34.6693986 66.7973671,34.6219662 66.7296693,34.59825 C66.6764782,34.581527 66.6344693,34.581527 66.4428604,34.581527 L66.4428604,34.9758851 Z M66.4428604,35.7858851 L66.1055804,35.7858851 L66.1055804,34.3583514 L66.6084782,34.3583514 C66.861136,34.3583514 67.1817938,34.3890608 67.1817938,34.7739932 C67.1817938,34.9546014 67.103216,35.0923378 66.8847093,35.1516284 L67.2247093,35.7858851 L66.8523716,35.7858851 L66.5577049,35.2039257 L66.4428604,35.2039257 L66.4428604,35.7858851 Z" id="Fill-14" fill="#FEFEFE"></path>
                        <path d="M66.6647822,36.1754696 C66.0866311,36.1754696 65.6163733,35.7026655 65.6163733,35.1207061 C65.6163733,34.5387466 66.0866311,34.0662466 66.6647822,34.0662466 C67.2432356,34.0662466 67.7134933,34.5387466 67.7134933,35.1207061 C67.7134933,35.7026655 67.2432356,36.1754696 66.6647822,36.1754696 M66.6647822,33.8239155 C65.9521422,33.8239155 65.3742933,34.4034426 65.3742933,35.1207061 C65.3742933,35.8382736 65.9521422,36.4202331 66.6647822,36.4202331 C67.3777244,36.4202331 67.9555733,35.8382736 67.9555733,35.1207061 C67.9555733,34.4034426 67.3777244,33.8239155 66.6647822,33.8239155" id="Fill-16" fill="#FEFEFE"></path>
                        <path d="M4.49924267,35.5745068 L4.49924267,34.3962973 L2.591616,34.3962973 L2.591616,32.6336959 L1.12462933,33.0730541 L1.12462933,34.3962973 L6.04444444e-05,34.3962973 L6.04444444e-05,35.5745068 L1.12462933,35.5745068 L1.12462933,39.3514662 C1.12462933,41.0307568 1.80644267,41.8836284 3.15223822,41.8836284 C3.63518933,41.8836284 4.05527822,41.8170405 4.40071822,41.6866014 L4.44272711,41.6698784 L4.37654044,40.5083919 L4.30340267,40.5296757 C4.10726044,40.5865338 3.84946489,40.6151149 3.53636267,40.6151149 C3.20422044,40.6151149 2.96939378,40.5153851 2.81979378,40.3110608 C2.66807822,40.1021757 2.591616,39.7482568 2.591616,39.2635946 L2.591616,35.5745068 L4.49924267,35.5745068 Z" id="Fill-18" fill="#FEFEFE"></path>
                        <path d="M9.566784,34.2632736 C9.40932622,34.2419899 9.28571733,34.2322601 9.18900622,34.2322601 C8.73869511,34.2322601 8.31588622,34.3797264 7.93297067,34.6694899 C7.61352178,34.9093885 7.36025956,35.232598 7.17741511,35.6315169 L7.10125511,34.3961453 L5.76724622,34.3961453 L5.77117511,34.4603007 C5.81076622,35.0519899 5.83041067,35.8215507 5.83041067,36.7480034 L5.83041067,41.7195912 L7.32671289,41.7195912 L7.32671289,37.8501993 C7.32671289,37.1447939 7.50200178,36.5959764 7.84744178,36.2159088 C8.19076622,35.840402 8.60753067,35.6482399 9.08564622,35.6482399 C9.262144,35.6482399 9.41748622,35.6625304 9.54623289,35.6908074 L9.61937067,35.7075304 L9.61937067,34.2702669 L9.566784,34.2632736 Z" id="Fill-20" fill="#FEFEFE"></path>
                        <mask id="mask-4" fill="white">
                            <use xlink:href="#path-3"></use>
                        </mask>
                        <g id="Clip-23"></g>
                        <polygon id="Fill-22" fill="#FEFEFE" mask="url(#mask-4)" points="10.9195911 41.7195608 12.4158933 41.7195608 12.4158933 34.3958108 10.9195911 34.3958108"></polygon>
                        <path d="M11.6604889,33.2085709 C11.9427644,33.2085709 12.17336,33.1158345 12.3468356,32.9376588 C12.5206133,32.7573547 12.60856,32.533875 12.60856,32.2702601 C12.60856,32.0112061 12.5188,31.7904628 12.3429067,31.6122872 C12.1670133,31.4365439 11.94216,31.3462399 11.6752978,31.3462399 C11.3984622,31.3462399 11.1687733,31.4365439 10.99288,31.6122872 C10.8163822,31.7904628 10.7272267,32.0112061 10.7272267,32.2702601 C10.7272267,32.533875 10.8151733,32.7573547 10.9886489,32.9376588 C11.1624267,33.1158345 11.3884889,33.2085709 11.6604889,33.2085709" id="Fill-24" fill="#FEFEFE" mask="url(#mask-4)"></path>
                        <path d="M16.0256053,35.8405541 C16.3444498,35.6100811 16.6986542,35.4915 17.079152,35.4915 C17.6808764,35.4915 18.1499253,35.7195405 18.5128942,36.1896081 C18.8773742,36.6624122 19.062032,37.2705203 19.062032,37.9975135 C19.062032,38.8099459 18.8749564,39.4630541 18.5065476,39.9358581 C18.1381387,40.4083581 17.653072,40.6388311 17.0226364,40.6388311 C16.5136942,40.6388311 16.072752,40.4487973 15.7115964,40.076027 C15.3498364,39.7029527 15.1660853,39.2350135 15.1660853,38.6840676 L15.1660853,37.522277 C15.1660853,37.3158243 15.2304587,37.0400473 15.3567876,36.6979865 C15.4806987,36.363223 15.705552,36.0755878 16.0256053,35.8405541 M19.7036498,35.2537297 C19.1197564,34.5531892 18.3790098,34.1968378 17.500752,34.1968378 C16.4369298,34.1968378 15.6052142,34.6173446 15.0249476,35.4461959 L14.9642009,34.360723 L13.6035964,34.360723 L13.6102453,34.4628851 C13.6474187,35.0685608 13.6661564,35.8618378 13.6661564,36.8238649 L13.6661564,44.7031216 L15.1660853,44.7031216 L15.1660853,40.9547432 C15.3740142,41.2280878 15.6390631,41.4488311 15.9563964,41.6127162 C16.3550276,41.8170405 16.798992,41.9192027 17.2758987,41.9192027 C18.2136942,41.9192027 19.007632,41.5534257 19.6350453,40.8337297 C20.2597387,40.1164662 20.5761653,39.142277 20.5761653,37.9379189 C20.5761653,36.8548784 20.2827076,35.9497095 19.7036498,35.2537297" id="Fill-25" fill="#FEFEFE" mask="url(#mask-4)"></path>
                        <path d="M25.171968,40.2635676 C24.8307591,40.5770473 24.4009991,40.7363716 23.8968924,40.7363716 C23.5445013,40.7363716 23.2589013,40.631777 23.0470436,40.4274527 C22.8360924,40.2255608 22.729408,39.9382297 22.729408,39.5745811 C22.729408,39.1090743 22.9400569,38.7502905 23.374048,38.4821149 C23.8025991,38.2160676 24.5799147,38.0783311 25.6848391,38.0734662 L25.6848391,39.2042432 C25.6848391,39.5961689 25.5125724,39.9525203 25.171968,40.2635676 L25.171968,40.2635676 Z M27.269088,41.6485338 C27.1914169,41.2186014 27.1518258,40.6412027 27.1518258,39.9333649 L27.1518258,37.2990405 C27.1518258,36.3157297 26.9061191,35.5507297 26.4222613,35.0256284 C25.936288,34.4983986 25.2109547,34.2323514 24.2665102,34.2323514 C23.3030258,34.2323514 22.4613369,34.455527 21.7644124,34.8976216 L21.7236124,34.9213378 L22.0747947,35.9475203 L22.139168,35.9070811 C22.6985813,35.5482973 23.3444302,35.3655608 24.0591858,35.3655608 C24.5874702,35.3655608 24.9894258,35.5032973 25.2544747,35.7763378 C25.5207324,36.04725 25.6555236,36.4343108 25.6555236,36.9259662 L25.6555236,36.9998514 C24.2311502,37.0068446 23.1283413,37.2418784 22.3788302,37.7003919 C21.6090702,38.1707635 21.2182969,38.8621824 21.2182969,39.7551892 C21.2182969,40.3395811 21.4307591,40.845527 21.8499413,41.2587365 C22.2691236,41.6746824 22.8333724,41.8835676 23.5269724,41.8835676 C24.4641636,41.8835676 25.212768,41.5463716 25.754048,40.8811014 L25.9015324,41.7196824 L27.2820836,41.7196824 L27.269088,41.6485338 Z" id="Fill-26" fill="#FEFEFE" mask="url(#mask-4)"></path>
                        <path d="M33.2823733,37.4178345 L33.2823733,38.562902 C33.2823733,39.1828682 33.0952978,39.6839493 32.7250756,40.0545912 C32.3545511,40.4228007 31.9272089,40.610402 31.4542311,40.610402 C30.8256089,40.610402 30.3499111,40.3799291 30.0005422,39.9049966 C29.6496622,39.4273277 29.4716533,38.8170912 29.4716533,38.0876655 C29.4716533,37.3108074 29.6599378,36.6719899 30.0310667,36.1897601 C30.4012889,35.7099628 30.8763822,35.4770574 31.48264,35.4770574 C31.9737511,35.4770574 32.4004889,35.6552331 32.7522756,36.009152 C33.1040622,36.3630709 33.2823733,36.8383074 33.2823733,37.4178345 L33.2823733,37.4178345 Z M34.8466756,41.7554696 L34.8382133,41.650875 C34.8016444,41.1972264 34.7829067,40.565402 34.7829067,39.7693885 L34.7829067,30.9661115 L33.2823733,30.9661115 L33.2823733,35.0945574 C33.08472,34.8570912 32.8365956,34.6600642 32.5428356,34.5056047 C32.1532711,34.298848 31.7062844,34.1966858 31.2151733,34.1966858 C30.2955111,34.1966858 29.5127556,34.5721926 28.8901778,35.3131723 C28.2709244,36.0495912 27.95752,37.0140507 27.95752,38.1779696 C27.95752,39.2515845 28.2555111,40.1543209 28.8445422,40.8551655 C29.4365956,41.5605709 30.1876178,41.9193547 31.07464,41.9193547 C31.6243822,41.9193547 32.1230489,41.7886115 32.5576444,41.5274291 C32.9027822,41.3206723 33.1868711,41.0427669 33.4050756,40.7031385 L33.4866756,41.7554696 L34.8466756,41.7554696 Z" id="Fill-27" fill="#FEFEFE" mask="url(#mask-4)"></path>
                        <path d="M40.9891911,34.3962973 C40.9891911,34.3962973 39.1211556,38.2325473 38.9881778,38.6649122 C38.8189333,38.1446757 36.9623822,34.3962973 36.9623822,34.3962973 L35.3379378,34.3962973 L38.9948267,41.7197432 L42.5861333,34.3962973 L40.9891911,34.3962973 Z" id="Fill-28" fill="#FEFEFE" mask="url(#mask-4)"></path>
                        <polygon id="Fill-29" fill="#FEFEFE" mask="url(#mask-4)" points="43.3111644 41.7195608 44.8080711 41.7195608 44.8080711 34.3958108 43.3111644 34.3958108"></polygon>
                        <path d="M44.0527271,33.2085709 C44.3350027,33.2085709 44.5659004,33.1158345 44.739376,32.9376588 C44.9122471,32.7573547 45.0007982,32.533875 45.0007982,32.2702601 C45.0007982,32.0112061 44.9110382,31.7904628 44.7351449,31.6122872 C44.5592516,31.4365439 44.3337938,31.3462399 44.0669316,31.3462399 C43.7907004,31.3462399 43.5601049,31.4365439 43.3842116,31.6122872 C43.2083182,31.7904628 43.1197671,32.0112061 43.1197671,32.2702601 C43.1197671,32.533875 43.2071093,32.7573547 43.3805849,32.9376588 C43.5546649,33.1158345 43.7801227,33.2085709 44.0527271,33.2085709" id="Fill-30" fill="#FEFEFE" mask="url(#mask-4)"></path>
                        <path d="M50.7107733,38.3181081 C50.4049244,37.9736149 49.8965867,37.6719932 49.1996622,37.4202365 C48.6435733,37.220777 48.2733511,37.0353041 48.10048,36.8689865 C47.9321422,36.7051014 47.8490311,36.5105068 47.8490311,36.2727365 C47.8490311,36.0066892 47.9463467,35.7929392 48.1458133,35.6220608 C48.3464889,35.4533108 48.6239289,35.3654392 48.9717867,35.3654392 C49.4864711,35.3654392 49.9929956,35.5080405 50.48048,35.7883784 L50.54304,35.8263851 L50.9232356,34.7123311 L50.8809244,34.6861824 C50.3707733,34.3842568 49.7442667,34.2322297 49.01712,34.2322297 C48.2304356,34.2322297 47.5921422,34.4462838 47.11584,34.8643581 C46.6389333,35.2869932 46.3974578,35.814527 46.3974578,36.4366216 C46.3974578,37.3679392 47.0726222,38.0733446 48.40512,38.5318581 C48.8926044,38.6981757 49.23744,38.8739189 49.4302578,39.0569595 C49.6191467,39.2396959 49.7095111,39.4653041 49.7095111,39.7553716 C49.7095111,40.0545608 49.5998044,40.2874662 49.37072,40.4653378 C49.14224,40.6435135 48.80768,40.73625 48.3803378,40.73625 C47.7734756,40.73625 47.1777956,40.5580743 46.6075022,40.2090203 L46.5410133,40.1685811 L46.17744,41.3467905 L46.2215644,41.3705068 C46.8432356,41.7101351 47.5598044,41.88375 48.35072,41.88375 C49.2141689,41.88375 49.9071644,41.6769932 50.4112711,41.2683446 C50.9196089,40.8551351 51.1771022,40.3063176 51.1771022,39.6364865 C51.1771022,39.1113851 51.0199467,38.6695946 50.7107733,38.3181081" id="Fill-31" fill="#FEFEFE" mask="url(#mask-4)"></path>
                        <path d="M55.4318169,40.7362804 C54.8548747,40.7362804 54.3673902,40.4845236 53.9832658,39.9880034 C53.5952124,39.4890507 53.398768,38.8429358 53.398768,38.073375 C53.398768,37.3013818 53.5876569,36.650402 53.9599947,36.1398953 C54.3271947,35.6363818 54.8367413,35.3797601 55.4747324,35.3797601 C56.1015413,35.3797601 56.6044391,35.6385101 56.9665013,36.1468885 C57.3352124,36.6625642 57.5213813,37.2965169 57.5213813,38.028375 C57.5213813,38.8240845 57.318288,39.4820574 56.9196569,39.9831385 C56.5237458,40.4820912 56.0232658,40.7362804 55.4318169,40.7362804 M58.0412036,35.2824628 C57.4001902,34.5861791 56.5548747,34.2322601 55.5297369,34.2322601 C54.5018791,34.2322601 53.6375236,34.5886115 52.960848,35.2894561 C52.2859858,35.9903007 51.9432658,36.9404696 51.9432658,38.1186791 C51.9432658,39.2254358 52.275408,40.137598 52.9294169,40.8335777 C53.5846347,41.5295574 54.4263236,41.8834764 55.4318169,41.8834764 C56.0767591,41.8834764 56.6848302,41.7220236 57.2391058,41.4061115 C57.7951947,41.0901993 58.2337191,40.6316858 58.5413813,40.0427331 C58.8499502,39.4559088 59.0052924,38.7647939 59.0052924,37.9830709 C59.0052924,36.8857399 58.6807058,35.9784426 58.0412036,35.2824628" id="Fill-32" fill="#FEFEFE" mask="url(#mask-4)"></path>
                        <path d="M64.0286187,34.2632736 C63.8714631,34.2419899 63.747552,34.2322601 63.6508409,34.2322601 C63.2014364,34.2322601 62.7783253,34.3797264 62.3951076,34.6694899 C62.0759609,34.9093885 61.8220942,35.232598 61.639552,35.6315169 L61.5639964,34.3961453 L60.2299876,34.3961453 L60.2330098,34.4603007 C60.2719964,35.0519899 60.2925476,35.8215507 60.2925476,36.7480034 L60.2925476,41.7195912 L61.7894542,41.7195912 L61.7894542,37.8501993 C61.7894542,37.1447939 61.9638364,36.5959764 62.3098809,36.2159088 C62.6532053,35.840402 63.0699698,35.6482399 63.5480853,35.6482399 C63.7239787,35.6482399 63.8802276,35.6625304 64.0089742,35.6908074 L64.082112,35.7075304 L64.082112,34.2702669 L64.0286187,34.2632736 Z" id="Fill-33" fill="#FEFEFE" mask="url(#mask-4)"></path>
                    </g>
                    <g id="Group-25" transform="translate(86.000000, 14.000000)" fill="#FFFFFF">
                        <polygon id="Star-1" points="8.84615385 13.2692308 3.64651508 16.0028426 4.63955772 10.2129598 0.432961587 6.11254197 6.24633446 5.26780945 8.84615385 0 11.4459732 5.26780945 17.2593461 6.11254197 13.05275 10.2129598 14.0457926 16.0028426"></polygon>
                        <polygon id="Star-1-Copy" points="31.9230769 13.2692308 26.7234382 16.0028426 27.7164808 10.2129598 23.5098847 6.11254197 29.3232575 5.26780945 31.9230769 0 34.5228963 5.26780945 40.3362692 6.11254197 36.1296731 10.2129598 37.1227157 16.0028426"></polygon>
                        <polygon id="Star-1-Copy-2" points="54.2307692 13.2692308 49.0311305 16.0028426 50.0241731 10.2129598 45.817577 6.11254197 51.6309498 5.26780945 54.2307692 0 56.8305886 5.26780945 62.6439615 6.11254197 58.4373654 10.2129598 59.430408 16.0028426"></polygon>
                        <polygon id="Star-1-Copy-3" points="77.3076923 13.2692308 72.1080535 16.0028426 73.1010962 10.2129598 68.8945 6.11254197 74.7078729 5.26780945 77.3076923 0 79.9075117 5.26780945 85.7208846 6.11254197 81.5142884 10.2129598 82.5073311 16.0028426"></polygon>
                        <polygon id="Star-1-Copy-4" points="99.6153846 13.2692308 94.4157458 16.0028426 95.4087885 10.2129598 91.2021924 6.11254197 97.0155652 5.26780945 99.6153846 0"></polygon>
                    </g>
                </g>
            </g>
        </g>
    </g>
</svg>