<?xml version="1.0" encoding="UTF-8"?>
<svg width="16px" height="13px" viewBox="0 0 16 13" version="1.1" xmlns="http://www.w3.org/2000/svg" xmlns:xlink="http://www.w3.org/1999/xlink">
  <!-- Generator: Sketch 60.1 (88133) - https://sketch.com -->
  <title>Shape</title>
  <desc>Created with Sketch.</desc>
  <g id="Symbols" stroke="none" stroke-width="1" fill="none" fill-rule="evenodd">
    <g id="Footer-Desktop" transform="translate(-427.000000, -181.000000)">
      <g id="Group-4">
        <rect id="Rectangle-59" fill="#272525" x="0" y="0" width="1280" height="415"></rect>
        <g id="Group-21" transform="translate(355.000000, 165.000000)">
          <g id="Group-18" transform="translate(58.000000, 0.000000)">
            <path d="M30,17.5 C29.4,17.8 28.8,17.9 28.1,18 C28.8,17.6 29.3,17 29.5,16.2 C28.9,16.6 28.2,16.8 27.4,17 C26.8,16.4 25.9,16 25,16 C23.3,16 21.8,17.5 21.8,19.3 C21.8,19.6 21.8,19.8 21.9,20 C19.2,19.9 16.7,18.6 15.1,16.6 C14.8,17.1 14.7,17.6 14.7,18.3 C14.7,19.4 15.3,20.4 16.2,21 C15.7,21 15.2,20.8 14.7,20.6 L14.7,20.6 C14.7,22.2 15.8,23.5 17.3,23.8 C17,23.9 16.7,23.9 16.4,23.9 C16.2,23.9 16,23.9 15.8,23.8 C16.2,25.1 17.4,26.1 18.9,26.1 C17.8,27 16.4,27.5 14.8,27.5 L14,27.5 C15.5,28.4 17.2,29 19,29 C25,29 28.3,24 28.3,19.7 L28.3,19.3 C29,18.8 29.6,18.2 30,17.5 L30,17.5 Z" id="Shape" fill="#FFFFFF"></path>
            <circle id="Oval-50-Copy" stroke="#FFFFFF" cx="22" cy="22" r="21.5"></circle>
          </g>
        </g>
      </g>
    </g>
  </g>
</svg>
